<svg width="102" height="40" viewBox="0 0 102 40" fill="none" xmlns="http://www.w3.org/2000/svg">
<g id="EN" clip-path="url(#clip0_239_911)">
<path id="Shape-path" fill-rule="evenodd" clip-rule="evenodd" d="M25.5818 17.6577L19.4148 23.9559C19.2372 24.1374 18.8863 24.2858 18.635 24.2858H18.1023C17.851 24.2858 17.5001 24.1369 17.3227 23.9559L14.4186 20.983C14.2412 20.8015 14.2415 20.5047 14.4194 20.3237L15.5623 19.1591C15.7401 18.9776 16.031 18.9776 16.2091 19.1586L18.0645 21.0452C18.2426 21.2264 18.5335 21.2262 18.7111 21.0447L23.7964 15.8509C23.974 15.6696 24.2651 15.6686 24.4435 15.8491L25.5803 16.9995C25.7584 17.1803 25.7591 17.4759 25.5818 17.6577Z" fill="#241C15" fill-opacity="0.65"/>
<g id="Group">
<path id="Shape" d="M20 0L20.648 2.09709H22.7451L21.0486 3.39311L21.6965 5.4902L20 4.19335L18.3039 5.4902L18.9519 3.39311L17.2549 2.09709H19.352L20 0Z" fill="#241C15" fill-opacity="0.3"/>
<path id="Shape_2" d="M20 34.5098L20.648 36.6075H22.7451L21.0486 37.9033L21.6965 40L20 38.7043L18.3039 40L18.9519 37.9033L17.2549 36.6075H19.352L20 34.5098Z" fill="#241C15" fill-opacity="0.3"/>
<path id="Shape_3" d="M28.6274 3.13733L29.2751 5.23439H31.3725L29.6757 6.53093L30.3238 8.62753L28.6274 7.33098L26.9307 8.62753L27.5787 6.53093L25.8823 5.23439H27.9797L28.6274 3.13733Z" fill="#241C15" fill-opacity="0.3"/>
<path id="Shape_4" d="M35.6026 25.7142L36.2502 27.812H38.3474L36.6507 29.1079L37.2992 31.2044L35.6026 29.909L33.9058 31.2044L34.5539 29.1079L32.8572 27.812H34.9545L35.6026 25.7142Z" fill="#241C15" fill-opacity="0.3"/>
<path id="Shape_5" d="M37.255 17.2549L37.9027 19.3518H40L38.3033 20.6477L38.9513 22.7451L37.255 21.4496L35.5584 22.7451L36.2068 20.6477L34.5098 19.3518H36.6066L37.255 17.2549Z" fill="#241C15" fill-opacity="0.3"/>
<path id="Shape_6" d="M2.74549 17.2549L3.39319 19.3518H5.4902L3.79343 20.6477L4.44192 22.7451L2.74549 21.4496L1.04861 22.7451L1.69676 20.6477L0 19.3518H2.09734L2.74549 17.2549Z" fill="#241C15" fill-opacity="0.3"/>
<path id="Shape_7" d="M4.17408 25.7142L4.82178 27.812H6.91879L5.22247 29.1079L5.87006 31.2044L4.17408 29.909L2.47732 31.2044L3.12535 29.1079L1.42859 27.812H3.52604L4.17408 25.7142Z" fill="#241C15" fill-opacity="0.3"/>
<path id="Shape_8" d="M35.6026 8.57141L36.2502 10.6692H38.3474L36.6507 11.9651L37.2992 14.0616L35.6026 12.7661L33.9058 14.0616L34.5539 11.9651L32.8572 10.6692H34.9545L35.6026 8.57141Z" fill="#241C15" fill-opacity="0.3"/>
<path id="Shape_9" d="M4.88831 8.57141L5.53601 10.6692H7.63302L5.9367 11.9651L6.58429 14.0616L4.88831 12.7661L3.19155 14.0616L3.83959 11.9651L2.14282 10.6692H4.24028L4.88831 8.57141Z" fill="#241C15" fill-opacity="0.3"/>
<path id="Shape_10" d="M30.1963 32.9412L30.844 35.0379H32.9412L31.2442 36.3346L31.8926 38.4314L30.1963 37.1355L28.4992 38.4314L29.1478 36.3346L27.451 35.0379H29.5483L30.1963 32.9412Z" fill="#241C15" fill-opacity="0.3"/>
<path id="Shape_11" d="M11.3726 3.13733L12.0202 5.23439H14.1176L12.4209 6.53093L13.0694 8.62753L11.3726 7.33098L9.67617 8.62753L10.3242 6.53093L8.62744 5.23439H10.7244L11.3726 3.13733Z" fill="#241C15" fill-opacity="0.3"/>
<path id="Shape_12" d="M9.80377 32.9412L10.4518 35.039H12.549L10.8524 36.3345L11.5004 38.4314L9.80377 37.1363L8.10748 38.4314L8.75546 36.3345L7.05884 35.039H9.15567L9.80377 32.9412Z" fill="#241C15" fill-opacity="0.3"/>
</g>
<g id="Frame 369975" clip-path="url(#clip1_239_911)">
<path id="Ready" d="M55.326 14.234C59.646 14.234 61.752 11.678 61.752 8.474V6.818H55.578V9.5H57.774C57.684 10.346 57.072 11.138 55.452 11.138C53.364 11.138 52.734 9.608 52.734 7.718V7.574C52.734 5.396 53.724 4.136 55.344 4.136C56.604 4.136 57.27 4.73 57.414 5.792H61.446C61.23 2.354 58.458 0.932 55.326 0.932C51.42 0.932 48.486 3.56 48.486 7.502V7.646C48.486 11.516 50.88 14.234 55.326 14.234ZM67.78 10.868V4.262H68.446C70.426 4.262 71.308 5.126 71.308 7.484V7.628C71.308 9.878 70.462 10.868 68.464 10.868H67.78ZM63.694 14H68.608C73.144 14 75.556 11.642 75.556 7.538V7.412C75.556 3.326 73.216 1.13 68.608 1.13H63.694V14ZM77.4973 14H81.5653V9.806H82.8073C86.1373 9.806 87.9193 8.294 87.9193 5.612V5.54C87.9193 2.786 86.3353 1.13 82.6273 1.13H77.4973V14ZM81.5653 7.07V4.172H82.4293C83.4913 4.172 84.0493 4.568 84.0493 5.558V5.63C84.0493 6.584 83.4913 7.07 82.4113 7.07H81.5653ZM89.7361 14H93.8041V9.59H94.4521L96.8461 14H101.13L98.1961 8.744C99.4741 8.168 100.374 7.16 100.374 5.378V5.306C100.374 2.552 98.5381 1.13 94.9921 1.13H89.7361V14ZM93.8041 6.962V4.19H94.7761C95.8741 4.19 96.4321 4.55 96.4321 5.486V5.558C96.4321 6.494 95.8921 6.962 94.7581 6.962H93.8041Z" fill="#241C15" fill-opacity="0.65"/>
<path id="Ready_2" d="M48.77 27H50.39V24.23H52.74V23.01H50.39V21.12H53.36V19.85H48.77V27ZM54.7295 27H56.3395V24.24H57.0395L58.7495 27H60.4695L58.5795 23.96C59.4195 23.71 60.0495 23.14 60.0495 22.06V22.02C60.0495 20.54 58.9795 19.85 57.2895 19.85H54.7295V27ZM56.3395 23.14V21.09H57.2495C58.0295 21.09 58.4695 21.34 58.4695 22.07V22.11C58.4695 22.8 58.0595 23.14 57.2495 23.14H56.3395ZM61.774 27H63.404V19.85H61.774V27ZM65.2717 27H70.0917V25.74H66.8817V23.96H69.3217V22.78H66.8817V21.11H69.9317V19.85H65.2717V27ZM71.5047 27H72.9447V21.91L75.9247 27H77.5447V19.85H76.1047V24.56L73.3847 19.85H71.5047V27ZM79.3685 27H81.6985C84.2085 27 85.4585 25.57 85.4585 23.43V23.35C85.4585 21.21 84.2185 19.85 81.7085 19.85H79.3685V27ZM80.9885 25.74V21.11H81.6285C83.1385 21.11 83.7685 21.9 83.7685 23.37V23.45C83.7685 24.93 83.0885 25.74 81.6485 25.74H80.9885ZM86.9101 27H91.4401V25.73H88.5301V19.85H86.9101V27ZM93.6716 27H95.3016V23.92L97.5316 19.85H95.9616L94.5416 22.59L93.0916 19.85H91.3116L93.6716 23.92V27Z" fill="#241C15" fill-opacity="0.65"/>
<path id="Ready_3" d="M50.17 39H51.8V33.11H53.73V31.85H48.24V33.11H50.17V39ZM58.0295 39.11C60.2595 39.11 61.7195 37.56 61.7195 35.43V35.35C61.7195 33.2 60.1895 31.75 58.0395 31.75C55.9195 31.75 54.3595 33.26 54.3595 35.39V35.47C54.3595 37.56 55.7895 39.11 58.0295 39.11ZM58.0595 37.82C56.8895 37.82 56.0495 36.92 56.0495 35.46V35.38C56.0495 33.94 56.7995 33.03 58.0395 33.03C59.2895 33.03 60.0295 33.98 60.0295 35.37V35.45C60.0295 36.89 59.2695 37.82 58.0595 37.82ZM66.4793 39.11C68.7093 39.11 70.1693 37.56 70.1693 35.43V35.35C70.1693 33.2 68.6393 31.75 66.4893 31.75C64.3693 31.75 62.8093 33.26 62.8093 35.39V35.47C62.8093 37.56 64.2393 39.11 66.4793 39.11ZM66.5093 37.82C65.3393 37.82 64.4993 36.92 64.4993 35.46V35.38C64.4993 33.94 65.2493 33.03 66.4893 33.03C67.7393 33.03 68.4793 33.98 68.4793 35.37V35.45C68.4793 36.89 67.7193 37.82 66.5093 37.82ZM71.6291 39H76.1591V37.73H73.2491V31.85H71.6291V39ZM79.9324 39.11C81.6224 39.11 82.6624 38.1 82.6624 36.83C82.6624 35.35 81.7724 34.88 80.0424 34.66C78.9424 34.5 78.7124 34.26 78.7124 33.75C78.7124 33.27 79.0724 32.94 79.7824 32.94C80.4924 32.94 80.8724 33.24 80.9724 33.89H82.4624C82.3324 32.47 81.3924 31.75 79.7824 31.75C78.2024 31.75 77.1824 32.66 77.1824 33.88C77.1824 35.26 77.9324 35.81 79.7624 36.05C80.8124 36.21 81.1124 36.41 81.1124 36.98C81.1124 37.54 80.6424 37.93 79.9324 37.93C78.8724 37.93 78.6024 37.4 78.5324 36.76H76.9824C77.0724 38.19 77.9724 39.11 79.9324 39.11Z" fill="#241C15" fill-opacity="0.65"/>
</g>
</g>
<defs>
<clipPath id="clip0_239_911">
<rect width="102" height="40" fill="white"/>
</clipPath>
<clipPath id="clip1_239_911">
<rect width="54" height="40" fill="white" transform="translate(48)"/>
</clipPath>
</defs>
</svg>
